<svg width="833" height="169" viewBox="0 0 833 169" fill="none" xmlns="http://www.w3.org/2000/svg">
<path d="M102.173 134H77.6341V91.25H41.2825V134H16.6028V31.625H41.2825V72.2656H77.6341V31.625H102.173V134ZM154.23 134H129.62V31.625H154.23V134ZM244.958 90.6172H206.146V115.016H251.989V134H181.466V31.625H252.13V50.6797H206.146V72.2656H244.958V90.6172ZM304.538 31.625L327.39 102.852L350.171 31.625H382.655V134H357.905V110.094L360.296 61.1562L335.546 134H319.233L294.413 61.0859L296.804 110.094V134H272.124V31.625H304.538ZM433.165 99.2656V134H408.485V31.625H449.337C457.165 31.625 464.079 33.0781 470.079 35.9844C476.126 38.8438 480.79 42.9453 484.071 48.2891C487.399 53.5859 489.063 59.6094 489.063 66.3594C489.063 76.3438 485.478 84.3359 478.306 90.3359C471.181 96.2891 461.384 99.2656 448.915 99.2656H433.165ZM433.165 80.2109H449.337C454.118 80.2109 457.751 79.0156 460.235 76.625C462.767 74.2344 464.032 70.8594 464.032 66.5C464.032 61.7188 462.743 57.8984 460.165 55.0391C457.587 52.1797 454.071 50.7266 449.618 50.6797H433.165V80.2109ZM565.167 106.789C565.167 103.18 563.878 100.367 561.3 98.3516C558.768 96.3359 554.292 94.25 547.87 92.0938C541.448 89.9375 536.198 87.8516 532.12 85.8359C518.854 79.3203 512.222 70.3672 512.222 58.9766C512.222 53.3047 513.862 48.3125 517.143 44C520.472 39.6406 525.159 36.2656 531.206 33.875C537.253 31.4375 544.05 30.2188 551.597 30.2188C558.956 30.2188 565.542 31.5313 571.354 34.1562C577.214 36.7812 581.761 40.5313 584.995 45.4062C588.229 50.2344 589.847 55.7656 589.847 62H565.237C565.237 57.8281 563.948 54.5938 561.37 52.2969C558.839 50 555.393 48.8516 551.034 48.8516C546.628 48.8516 543.136 49.8359 540.557 51.8047C538.026 53.7266 536.761 56.1875 536.761 59.1875C536.761 61.8125 538.167 64.2031 540.979 66.3594C543.792 68.4688 548.737 70.6719 555.815 72.9688C562.893 75.2188 568.706 77.6562 573.253 80.2812C584.315 86.6562 589.847 95.4453 589.847 106.648C589.847 115.602 586.472 122.633 579.722 127.742C572.972 132.852 563.714 135.406 551.948 135.406C543.651 135.406 536.128 133.93 529.378 130.977C522.675 127.977 517.612 123.898 514.19 118.742C510.815 113.539 509.128 107.562 509.128 100.812H533.878C533.878 106.297 535.284 110.352 538.097 112.977C540.956 115.555 545.573 116.844 551.948 116.844C556.026 116.844 559.237 115.977 561.581 114.242C563.972 112.461 565.167 109.977 565.167 106.789ZM670.731 114.875H636.911L631.005 134H604.637L642.184 31.625H665.387L703.216 134H676.708L670.731 114.875ZM642.817 95.8203H664.825L653.786 60.3125L642.817 95.8203ZM745.499 115.016H788.46V134H720.819V31.625H745.499V115.016Z" fill="url(#paint0_linear_1_12)"/>
<path d="M812.5 62.45C820.204 62.45 826.45 56.2044 826.45 48.5C826.45 40.7956 820.204 34.55 812.5 34.55C804.796 34.55 798.55 40.7956 798.55 48.5C798.55 56.2044 804.796 62.45 812.5 62.45Z" stroke="url(#paint1_linear_1_12)" stroke-width="3.1"/>
<path d="M813.501 50.0304H809.414V57.069H807.108V39.6697H812.868C814.828 39.6697 816.333 40.1158 817.385 41.0081C818.445 41.9004 818.974 43.199 818.974 44.9038C818.974 45.9873 818.68 46.9314 818.09 47.736C817.508 48.5406 816.696 49.1421 815.652 49.5404L819.739 56.9256V57.069H817.277L813.501 50.0304ZM809.414 48.1542H812.94C814.079 48.1542 814.983 47.8595 815.652 47.2699C816.329 46.6804 816.668 45.8917 816.668 44.9038C816.668 43.8283 816.345 43.0038 815.7 42.4302C815.063 41.8566 814.139 41.5658 812.928 41.5578H809.414V48.1542Z" fill="url(#paint2_linear_1_12)"/>
<defs>
<linearGradient id="paint0_linear_1_12" x1="400" y1="-1.34119e-05" x2="327" y2="134" gradientUnits="userSpaceOnUse">
<stop stop-color="#E00B25"/>
<stop offset="1" stop-color="#453B3C"/>
</linearGradient>
<linearGradient id="paint1_linear_1_12" x1="804" y1="33" x2="817.5" y2="64" gradientUnits="userSpaceOnUse">
<stop/>
<stop offset="1" stop-color="#868E96"/>
</linearGradient>
<linearGradient id="paint2_linear_1_12" x1="812.641" y1="34.069" x2="812.641" y2="63.4374" gradientUnits="userSpaceOnUse">
<stop/>
<stop offset="1" stop-color="#868E96"/>
</linearGradient>
</defs>
</svg>
