<svg width="301" height="301" viewBox="0 0 301 301" fill="none" xmlns="http://www.w3.org/2000/svg">
<path d="M151.098 78.9552H151.098C145.006 78.9552 140.066 83.8944 140.066 89.9871V213.545C140.066 219.637 145.006 224.577 151.098 224.577C157.191 224.577 162.13 219.637 162.13 213.545V89.9871C162.13 83.8944 157.191 78.9552 151.098 78.9552Z" fill="#E00B25"/>
<path d="M207.484 78.9552H207.484C201.391 78.9552 196.452 83.8944 196.452 89.9871V116.464C196.452 122.556 201.391 127.496 207.484 127.496H207.484C213.577 127.496 218.516 122.556 218.516 116.464V89.9871C218.516 83.8944 213.577 78.9552 207.484 78.9552Z" fill="#E00B25"/>
<path d="M207.484 171.623H207.484C201.391 171.623 196.452 176.563 196.452 182.655V213.545C196.452 219.638 201.391 224.577 207.484 224.577H207.484C213.577 224.577 218.516 219.638 218.516 213.545V182.655C218.516 176.563 213.577 171.623 207.484 171.623Z" fill="#E00B25"/>
<path d="M97.1646 171.623H97.1645C91.0717 171.623 86.1326 176.563 86.1326 182.655V213.545C86.1326 219.638 91.0717 224.577 97.1645 224.577H97.1646C103.257 224.577 108.196 219.638 108.196 213.545V182.655C108.196 176.563 103.257 171.623 97.1646 171.623Z" fill="#E00B25"/>
<path d="M97.1646 78.9552H97.1645C91.0717 78.9552 86.1326 83.8944 86.1326 89.9871V116.464C86.1326 122.556 91.0717 127.496 97.1645 127.496H97.1646C103.257 127.496 108.196 122.556 108.196 116.464V89.9871C108.196 83.8944 103.257 78.9552 97.1646 78.9552Z" fill="#E00B25"/>
<path d="M86.1326 120.013V130.565C86.1326 133.744 88.7095 136.321 91.8884 136.321H212.76C215.939 136.321 218.516 133.744 218.516 130.565V120.013C218.516 116.834 215.939 114.257 212.76 114.257H91.8884C88.7095 114.257 86.1326 116.834 86.1326 120.013Z" fill="#E00B25"/>
<path d="M85.6743 172.966V183.518C85.6743 186.697 88.2512 189.274 91.43 189.274H212.301C215.48 189.274 218.057 186.697 218.057 183.518V172.966C218.057 169.787 215.48 167.21 212.301 167.21H91.43C88.2512 167.21 85.6743 169.787 85.6743 172.966Z" fill="#E00B25"/>
<path d="M222.159 195.117C218.54 195.852 202.801 197.401 202.801 197.401L202.582 195.227C202.582 195.227 213.491 194.24 214.535 193.448L201.867 191.572L189.861 200.662L171.107 199.872L185.254 190.09H196.44C179.385 186.287 167.471 182.042 167.471 182.042L154.439 190.09L136.3 188.169L150.271 179.023L162.734 179.893C143.524 172.649 133.163 163.116 133.163 163.116L115.287 165.587L101.031 157.681L118.797 154.816L131.351 161.286C118.906 151.951 112.326 135.549 112.326 135.549L95.6572 131.894L86.0065 119.049L103.334 122.705L111.282 133.277C106.185 121.566 106.514 103.932 106.514 103.932L92.0381 96.2251L87.5418 81.4043L102.597 89.8699L106.734 102.153L107.172 89.6051L105.672 76.8751L116.713 64.5088L118.086 80.0685L109.146 90.0004V103.189L113.752 92.3717L129.544 85.159L123.951 99.5844L109.203 106.449C109.203 106.449 108.764 121.468 114.52 133.818L114.577 122.606L127.351 111.836L127.517 127.349L115.836 137.031C115.836 137.031 122.578 151.208 134.808 161.041L129 150.706L134.589 136.241L142.156 150.172L137.111 162.768C137.111 162.768 149.065 172.798 167.817 179.32L157.947 171.613L156.303 156.496L169.791 166.277L171.327 180.655C171.327 180.655 194.308 189.026 222.159 192.121" fill="white"/>
<path d="M293.819 150.5C293.819 71.3472 229.653 7.18118 150.5 7.18118C71.3472 7.18118 7.18115 71.3472 7.18115 150.5C7.18115 229.653 71.3472 293.819 150.5 293.819C229.653 293.819 293.819 229.653 293.819 150.5Z" stroke="#E00B25" stroke-width="14.3548"/>
</svg>
