<svg width="1970" height="1970" viewBox="0 0 1970 1970" fill="none" xmlns="http://www.w3.org/2000/svg">
<rect x="915.325" y="516" width="144.174" height="951.549" rx="72.087" fill="white"/>
<rect x="1283.77" y="516" width="144.174" height="317.183" rx="72.087" fill="white"/>
<rect x="1283.77" y="1121.53" width="144.174" height="346.018" rx="72.087" fill="white"/>
<rect x="562.9" y="1121.53" width="144.174" height="346.018" rx="72.087" fill="white"/>
<rect x="562.9" y="516" width="144.174" height="317.183" rx="72.087" fill="white"/>
<rect x="562.9" y="890.852" width="144.174" height="865.044" rx="37.6106" transform="rotate(-90 562.9 890.852)" fill="white"/>
<rect x="562.9" y="1236.87" width="144.174" height="865.044" rx="37.6106" transform="rotate(-90 562.9 1236.87)" fill="white"/>
<path d="M1454 1277.01C1430.31 1281.82 1327.3 1291.96 1327.3 1291.96L1325.87 1277.73C1325.87 1277.73 1397.27 1271.27 1404.1 1266.09L1321.19 1253.81L1242.61 1313.3L1119.87 1308.13L1212.46 1244.11H1285.67C1174.05 1219.22 1096.07 1191.44 1096.07 1191.44L1010.78 1244.11L892.06 1231.54L983.501 1171.68L1065.07 1177.37C939.345 1129.96 871.532 1067.57 871.532 1067.57L754.539 1083.74L661.232 1032L777.507 1013.25L859.675 1055.59C778.225 994.496 735.16 887.15 735.16 887.15L626.062 863.223L562.9 779.157L676.304 803.084L728.327 872.277C694.966 795.634 697.119 680.218 697.119 680.218L602.376 629.778L572.949 532.779L671.481 588.185L698.555 668.578L701.426 586.452L691.607 503.136L763.87 422.2L772.856 524.036L714.345 589.039V675.355L744.491 604.559L847.846 557.352L811.241 651.765L714.718 696.695C714.718 696.695 711.847 794.988 749.515 875.82L749.888 802.437L833.491 731.951L834.582 833.477L758.128 896.85C758.128 896.85 802.255 989.633 882.298 1053.99L844.286 986.348L880.863 891.676L930.388 982.856L897.371 1065.29C897.371 1065.29 975.606 1130.94 1098.34 1173.62L1033.74 1123.18L1022.98 1024.24L1111.26 1088.26L1121.31 1182.36C1121.31 1182.36 1271.72 1237.15 1454 1257.4" fill="black"/>
<rect x="47" y="47" width="1876" height="1876" rx="938" stroke="white" stroke-opacity="0.8" stroke-width="93.8"/>
</svg>
