<svg width="1160" height="301" viewBox="0 0 1160 301" fill="none" xmlns="http://www.w3.org/2000/svg">
<path d="M429.173 142H404.634V99.25H368.282V142H343.603V39.625H368.282V80.2656H404.634V39.625H429.173V142ZM481.23 142H456.62V39.625H481.23V142ZM571.958 98.6172H533.146V123.016H578.989V142H508.466V39.625H579.13V58.6797H533.146V80.2656H571.958V98.6172ZM631.538 39.625L654.39 110.852L677.171 39.625H709.655V142H684.905V118.094L687.296 69.1562L662.546 142H646.233L621.413 69.0859L623.804 118.094V142H599.124V39.625H631.538ZM760.165 107.266V142H735.485V39.625H776.337C784.165 39.625 791.079 41.0781 797.079 43.9844C803.126 46.8438 807.79 50.9453 811.071 56.2891C814.399 61.5859 816.063 67.6094 816.063 74.3594C816.063 84.3438 812.478 92.3359 805.306 98.3359C798.181 104.289 788.384 107.266 775.915 107.266H760.165ZM760.165 88.2109H776.337C781.118 88.2109 784.751 87.0156 787.235 84.625C789.767 82.2344 791.032 78.8594 791.032 74.5C791.032 69.7188 789.743 65.8984 787.165 63.0391C784.587 60.1797 781.071 58.7266 776.618 58.6797H760.165V88.2109ZM892.167 114.789C892.167 111.18 890.878 108.367 888.3 106.352C885.768 104.336 881.292 102.25 874.87 100.094C868.448 97.9375 863.198 95.8516 859.12 93.8359C845.854 87.3203 839.222 78.3672 839.222 66.9766C839.222 61.3047 840.862 56.3125 844.143 52C847.472 47.6406 852.159 44.2656 858.206 41.875C864.253 39.4375 871.05 38.2188 878.597 38.2188C885.956 38.2188 892.542 39.5313 898.354 42.1562C904.214 44.7812 908.761 48.5313 911.995 53.4062C915.229 58.2344 916.847 63.7656 916.847 70H892.237C892.237 65.8281 890.948 62.5938 888.37 60.2969C885.839 58 882.393 56.8516 878.034 56.8516C873.628 56.8516 870.136 57.8359 867.557 59.8047C865.026 61.7266 863.761 64.1875 863.761 67.1875C863.761 69.8125 865.167 72.2031 867.979 74.3594C870.792 76.4688 875.737 78.6719 882.815 80.9688C889.893 83.2188 895.706 85.6562 900.253 88.2812C911.315 94.6562 916.847 103.445 916.847 114.648C916.847 123.602 913.472 130.633 906.722 135.742C899.972 140.852 890.714 143.406 878.948 143.406C870.651 143.406 863.128 141.93 856.378 138.977C849.675 135.977 844.612 131.898 841.19 126.742C837.815 121.539 836.128 115.562 836.128 108.812H860.878C860.878 114.297 862.284 118.352 865.097 120.977C867.956 123.555 872.573 124.844 878.948 124.844C883.026 124.844 886.237 123.977 888.581 122.242C890.972 120.461 892.167 117.977 892.167 114.789ZM997.731 122.875H963.911L958.005 142H931.637L969.184 39.625H992.387L1030.22 142H1003.71L997.731 122.875ZM969.817 103.82H991.825L980.786 68.3125L969.817 103.82ZM1072.5 123.016H1115.46V142H1047.82V39.625H1072.5V123.016Z" fill="url(#paint0_linear_3_28)"/>
<path d="M1139.5 70.45C1147.2 70.45 1153.45 64.2044 1153.45 56.5C1153.45 48.7956 1147.2 42.55 1139.5 42.55C1131.8 42.55 1125.55 48.7956 1125.55 56.5C1125.55 64.2044 1131.8 70.45 1139.5 70.45Z" stroke="url(#paint1_linear_3_28)" stroke-width="3.1"/>
<path d="M1140.5 58.0304H1136.41V65.069H1134.11V47.6697H1139.87C1141.83 47.6697 1143.33 48.1158 1144.39 49.0081C1145.45 49.9004 1145.97 51.199 1145.97 52.9038C1145.97 53.9873 1145.68 54.9314 1145.09 55.736C1144.51 56.5406 1143.7 57.1421 1142.65 57.5404L1146.74 64.9256V65.069H1144.28L1140.5 58.0304ZM1136.41 56.1542H1139.94C1141.08 56.1542 1141.98 55.8595 1142.65 55.2699C1143.33 54.6804 1143.67 53.8917 1143.67 52.9038C1143.67 51.8283 1143.35 51.0038 1142.7 50.4302C1142.06 49.8566 1141.14 49.5658 1139.93 49.5578H1136.41V56.1542Z" fill="url(#paint2_linear_3_28)"/>
<path d="M151.098 78.9552H151.098C145.006 78.9552 140.066 83.8944 140.066 89.9871V213.545C140.066 219.637 145.006 224.577 151.098 224.577C157.191 224.577 162.13 219.637 162.13 213.545V89.9871C162.13 83.8944 157.191 78.9552 151.098 78.9552Z" fill="#E00B25"/>
<path d="M207.484 78.9552H207.484C201.391 78.9552 196.452 83.8944 196.452 89.9871V116.464C196.452 122.556 201.391 127.496 207.484 127.496H207.484C213.577 127.496 218.516 122.556 218.516 116.464V89.9871C218.516 83.8944 213.577 78.9552 207.484 78.9552Z" fill="#E00B25"/>
<path d="M207.484 171.623H207.484C201.391 171.623 196.452 176.563 196.452 182.655V213.545C196.452 219.637 201.391 224.577 207.484 224.577H207.484C213.577 224.577 218.516 219.637 218.516 213.545V182.655C218.516 176.563 213.577 171.623 207.484 171.623Z" fill="#E00B25"/>
<path d="M97.1646 171.623H97.1645C91.0717 171.623 86.1326 176.563 86.1326 182.655V213.545C86.1326 219.637 91.0717 224.577 97.1645 224.577H97.1646C103.257 224.577 108.196 219.637 108.196 213.545V182.655C108.196 176.563 103.257 171.623 97.1646 171.623Z" fill="#E00B25"/>
<path d="M97.1646 78.9552H97.1645C91.0717 78.9552 86.1326 83.8944 86.1326 89.9871V116.464C86.1326 122.556 91.0717 127.496 97.1645 127.496H97.1646C103.257 127.496 108.196 122.556 108.196 116.464V89.9871C108.196 83.8944 103.257 78.9552 97.1646 78.9552Z" fill="#E00B25"/>
<path d="M86.1326 120.013V130.565C86.1326 133.744 88.7095 136.321 91.8884 136.321H212.76C215.939 136.321 218.516 133.744 218.516 130.565V120.013C218.516 116.834 215.939 114.257 212.76 114.257H91.8884C88.7095 114.257 86.1326 116.834 86.1326 120.013Z" fill="#E00B25"/>
<path d="M85.6743 172.966V183.518C85.6743 186.697 88.2512 189.274 91.43 189.274H212.301C215.48 189.274 218.057 186.697 218.057 183.518V172.966C218.057 169.787 215.48 167.21 212.301 167.21H91.43C88.2512 167.21 85.6743 169.787 85.6743 172.966Z" fill="#E00B25"/>
<path d="M222.159 195.117C218.54 195.852 202.801 197.401 202.801 197.401L202.582 195.227C202.582 195.227 213.491 194.24 214.535 193.448L201.867 191.572L189.861 200.662L171.107 199.872L185.254 190.09H196.44C179.385 186.287 167.471 182.042 167.471 182.042L154.439 190.09L136.3 188.169L150.271 179.023L162.734 179.893C143.524 172.649 133.163 163.116 133.163 163.116L115.287 165.587L101.031 157.681L118.797 154.816L131.351 161.286C118.906 151.951 112.326 135.549 112.326 135.549L95.6572 131.894L86.0065 119.049L103.334 122.705L111.282 133.277C106.185 121.566 106.514 103.932 106.514 103.932L92.0381 96.2251L87.5418 81.4043L102.597 89.8699L106.734 102.153L107.172 89.6051L105.672 76.8751L116.713 64.5087L118.086 80.0684L109.146 90.0004V103.189L113.752 92.3717L129.544 85.159L123.951 99.5844L109.203 106.449C109.203 106.449 108.764 121.468 114.52 133.818L114.577 122.606L127.351 111.836L127.517 127.349L115.836 137.031C115.836 137.031 122.578 151.208 134.808 161.041L129 150.706L134.589 136.241L142.156 150.172L137.111 162.768C137.111 162.768 149.065 172.798 167.817 179.32L157.947 171.613L156.303 156.496L169.791 166.277L171.327 180.655C171.327 180.655 194.308 189.026 222.159 192.121" fill="white"/>
<path d="M293.819 150.5C293.819 71.3472 229.653 7.18115 150.5 7.18115C71.3472 7.18115 7.18115 71.3472 7.18115 150.5C7.18115 229.653 71.3472 293.819 150.5 293.819C229.653 293.819 293.819 229.653 293.819 150.5Z" stroke="#E00B25" stroke-width="14.3548"/>
<path d="M362.061 175.598L388.008 242H378.243L370.989 222.005H342.903L335.463 242H326.349L352.296 175.598H362.061ZM356.946 183.596L345.693 214.565H368.199L357.132 183.596H356.946ZM419.669 175.598V234.56H454.823V242H410.834V175.598H419.669ZM532.341 196.058H523.506C522.638 191.346 520.499 187.75 517.089 185.27C513.679 182.728 509.246 181.457 503.79 181.457C499.078 181.457 494.986 182.666 491.514 185.084C488.104 187.44 485.5 190.757 483.702 195.035C481.904 199.251 481.005 204.118 481.005 209.636C481.005 217.2 483.113 223.524 487.329 228.608C491.421 233.63 496.908 236.141 503.79 236.141C507.944 236.141 511.633 235.273 514.857 233.537C518.081 231.801 520.592 229.383 522.39 226.283C524.188 223.121 525.087 219.525 525.087 215.495V214.472H503.883V207.032H532.992V242H527.412L525.087 233.723C522.669 236.823 519.6 239.241 515.88 240.977C512.16 242.713 508.13 243.581 503.79 243.581C494.8 243.581 487.267 240.357 481.191 233.909C475.177 227.461 472.17 219.525 472.17 210.101C472.17 199.561 474.991 190.912 480.633 184.154C486.337 177.396 494.056 174.017 503.79 174.017C511.726 174.017 518.205 175.939 523.227 179.783C528.311 183.565 531.349 188.99 532.341 196.058ZM608.116 175.598V183.038H571.102V204.149H605.605V211.589H571.102V234.56H608.395V242H562.267V175.598H608.116ZM686.825 192.989C686.825 197.391 685.864 201.018 683.942 203.87C682.02 206.722 679.137 208.706 675.293 209.822V210.008C677.587 210.442 679.416 211.279 680.78 212.519C682.206 213.697 683.291 215.464 684.035 217.82C684.841 220.176 685.306 223.369 685.43 227.399C685.554 231.243 685.895 234.25 686.453 236.42C687.073 238.59 687.972 240.45 689.15 242H679.292C678.796 241.318 678.455 240.698 678.269 240.14C678.145 239.52 677.959 238.435 677.711 236.885L677.339 229.631C677.215 226.159 676.471 222.656 675.107 219.122C673.681 215.526 670.674 213.697 666.086 213.635H644.231V242H635.396V175.598H667.016C672.906 175.598 677.68 177.148 681.338 180.248C684.996 183.348 686.825 187.595 686.825 192.989ZM677.99 194.384C677.99 190.788 676.967 187.998 674.921 186.014C672.937 184.03 670.147 183.038 666.551 183.038H644.231V206.195H663.11C673.03 206.195 677.99 202.258 677.99 194.384ZM724.543 175.598V242H715.708V175.598H724.543ZM783.485 175.598L809.432 242H799.667L792.413 222.005H764.327L756.887 242H747.773L773.72 175.598H783.485ZM778.37 183.596L767.117 214.565H789.623L778.556 183.596H778.37ZM831.015 242V233.149L854.496 210.13C856.742 207.863 858.613 205.848 860.11 204.087C861.607 202.325 862.73 200.619 863.479 198.968C864.227 197.316 864.602 195.555 864.602 193.684C864.602 191.548 864.117 189.721 863.149 188.201C862.18 186.66 860.848 185.471 859.153 184.635C857.457 183.798 855.531 183.38 853.373 183.38C851.149 183.38 849.201 183.842 847.528 184.767C845.854 185.669 844.555 186.957 843.631 188.631C842.728 190.304 842.276 192.297 842.276 194.608H830.618C830.618 190.315 831.598 186.583 833.558 183.413C835.517 180.242 838.214 177.787 841.649 176.048C845.106 174.309 849.069 173.439 853.538 173.439C858.074 173.439 862.059 174.287 865.493 175.982C868.928 177.677 871.592 180 873.486 182.95C875.401 185.901 876.359 189.269 876.359 193.056C876.359 195.588 875.874 198.076 874.906 200.52C873.937 202.964 872.231 205.672 869.787 208.644C867.365 211.616 863.963 215.216 859.582 219.444L847.924 231.3V231.762H877.383V242H831.015ZM933.772 243.288C928.334 243.288 923.666 241.912 919.769 239.16C915.894 236.386 912.911 232.39 910.819 227.172C908.749 221.931 907.715 215.624 907.715 208.248C907.737 200.872 908.782 194.597 910.852 189.423C912.944 184.227 915.927 180.264 919.802 177.534C923.699 174.804 928.356 173.439 933.772 173.439C939.188 173.439 943.845 174.804 947.742 177.534C951.639 180.264 954.622 184.227 956.692 189.423C958.783 194.619 959.829 200.894 959.829 208.248C959.829 215.646 958.783 221.964 956.692 227.205C954.622 232.423 951.639 236.408 947.742 239.16C943.867 241.912 939.21 243.288 933.772 243.288ZM933.772 232.951C937.999 232.951 941.335 230.87 943.779 226.709C946.244 222.526 947.477 216.372 947.477 208.248C947.477 202.876 946.916 198.362 945.793 194.707C944.67 191.053 943.085 188.3 941.037 186.451C938.99 184.58 936.568 183.644 933.772 183.644C929.567 183.644 926.242 185.735 923.798 189.919C921.354 194.08 920.121 200.19 920.099 208.248C920.077 213.642 920.617 218.178 921.717 221.854C922.84 225.531 924.426 228.305 926.473 230.177C928.521 232.026 930.954 232.951 933.772 232.951ZM990.797 242V233.149L1014.28 210.13C1016.52 207.863 1018.4 205.848 1019.89 204.087C1021.39 202.325 1022.51 200.619 1023.26 198.968C1024.01 197.316 1024.38 195.555 1024.38 193.684C1024.38 191.548 1023.9 189.721 1022.93 188.201C1021.96 186.66 1020.63 185.471 1018.93 184.635C1017.24 183.798 1015.31 183.38 1013.16 183.38C1010.93 183.38 1008.98 183.842 1007.31 184.767C1005.64 185.669 1004.34 186.957 1003.41 188.631C1002.51 190.304 1002.06 192.297 1002.06 194.608H990.4C990.4 190.315 991.38 186.583 993.34 183.413C995.299 180.242 997.996 177.787 1001.43 176.048C1004.89 174.309 1008.85 173.439 1013.32 173.439C1017.86 173.439 1021.84 174.287 1025.28 175.982C1028.71 177.677 1031.37 180 1033.27 182.95C1035.18 185.901 1036.14 189.269 1036.14 193.056C1036.14 195.588 1035.66 198.076 1034.69 200.52C1033.72 202.964 1032.01 205.672 1029.57 208.644C1027.15 211.616 1023.75 215.216 1019.36 219.444L1007.71 231.3V231.762H1037.16V242H990.797ZM1068.55 242V233.149L1092.03 210.13C1094.28 207.863 1096.15 205.848 1097.65 204.087C1099.15 202.325 1100.27 200.619 1101.02 198.968C1101.77 197.316 1102.14 195.555 1102.14 193.684C1102.14 191.548 1101.66 189.721 1100.69 188.201C1099.72 186.66 1098.39 185.471 1096.69 184.635C1095 183.798 1093.07 183.38 1090.91 183.38C1088.69 183.38 1086.74 183.842 1085.07 184.767C1083.39 185.669 1082.09 186.957 1081.17 188.631C1080.27 190.304 1079.82 192.297 1079.82 194.608H1068.16C1068.16 190.315 1069.14 186.583 1071.1 183.413C1073.06 180.242 1075.75 177.787 1079.19 176.048C1082.64 174.309 1086.61 173.439 1091.08 173.439C1095.61 173.439 1099.6 174.287 1103.03 175.982C1106.47 177.677 1109.13 180 1111.02 182.95C1112.94 185.901 1113.9 189.269 1113.9 193.056C1113.9 195.588 1113.41 198.076 1112.44 200.52C1111.48 202.964 1109.77 205.672 1107.33 208.644C1104.9 211.616 1101.5 215.216 1097.12 219.444L1085.46 231.3V231.762H1114.92V242H1068.55Z" fill="#E00B25"/>
<defs>
<linearGradient id="paint0_linear_3_28" x1="727" y1="8" x2="654" y2="142" gradientUnits="userSpaceOnUse">
<stop stop-color="#E00B25"/>
<stop offset="1" stop-color="#E00B25"/>
</linearGradient>
<linearGradient id="paint1_linear_3_28" x1="1131" y1="41" x2="1144.5" y2="72" gradientUnits="userSpaceOnUse">
<stop stop-color="#DB0D0D"/>
<stop offset="1" stop-color="#924747"/>
</linearGradient>
<linearGradient id="paint2_linear_3_28" x1="1139.64" y1="42.069" x2="1139.64" y2="71.4374" gradientUnits="userSpaceOnUse">
<stop stop-color="#E01818"/>
<stop offset="1" stop-color="#868E96"/>
</linearGradient>
</defs>
</svg>
